<svg width="50" height="50" viewBox="0 0 50 50" fill="none" xmlns="http://www.w3.org/2000/svg">
<rect x="5" y="5" width="40" height="40" rx="5" fill="white"/>
<path d="M37.4639 26.1537C36.7331 26.1549 36.0205 26.3772 35.4238 26.7903C34.827 27.2035 34.3754 27.7872 34.1309 28.4614H31.2419L29.1537 22.3273C29.074 22.0937 28.9201 21.891 28.7143 21.7491C28.5086 21.6073 28.2618 21.5336 28.0103 21.5389C27.7586 21.5442 27.5154 21.6282 27.316 21.7786C27.1168 21.9291 26.9719 22.1381 26.9026 22.3749L23.624 33.6076L19.7694 10.9634C19.7247 10.7019 19.5894 10.4635 19.3863 10.2882C19.1832 10.1129 18.9246 10.0115 18.6541 10.0009C18.3835 9.99034 18.1175 10.0713 17.9007 10.2301C17.6839 10.389 17.5297 10.616 17.4639 10.8732L12.9728 28.4614H9.17857C8.86597 28.4614 8.56621 28.5831 8.34522 28.7995C8.12424 29.0159 8 29.3093 8 29.6154C8 29.9214 8.12417 30.2149 8.34522 30.4312C8.56628 30.6476 8.86597 30.7692 9.17857 30.7692H13.8928C14.1556 30.7692 14.4109 30.6831 14.618 30.5248C14.8251 30.3664 14.9723 30.1448 15.036 29.8951L18.3758 16.8155L22.1589 39.0358C22.2025 39.2946 22.3348 39.531 22.5341 39.7064C22.7333 39.8816 22.9876 39.9852 23.255 40H23.322C23.5779 39.9999 23.8268 39.9181 24.031 39.7672C24.2352 39.6163 24.3838 39.4043 24.4541 39.1634L28.1224 26.5951L29.2744 29.9803C29.3527 30.2099 29.5028 30.4098 29.7034 30.5514C29.9042 30.6931 30.1452 30.7693 30.3926 30.7692H34.1308C34.3469 31.3675 34.7269 31.8962 35.2291 32.2974C35.7314 32.6987 36.3366 32.957 36.9787 33.0442C37.6207 33.1313 38.275 33.0441 38.8697 32.7917C39.4646 32.5394 39.977 32.132 40.3513 31.6137C40.7254 31.0956 40.947 30.4867 40.9916 29.8535C41.0363 29.2204 40.9021 28.5875 40.6041 28.0239C40.3061 27.4603 39.8556 26.9879 39.3018 26.6579C38.748 26.3282 38.1122 26.1537 37.4639 26.1537Z" fill="#D23D3D"/>
</svg>
